<svg xmlns="http://www.w3.org/2000/svg" viewBox="0 0 482 109.05"><defs><style>.cls-1{font-size:91.57px;font-family:Raleway-ExtraLight, Raleway;font-weight:200;}.cls-1,.cls-7{fill:#2a9d8f;}.cls-2{fill:none;letter-spacing:-0.02em;}.cls-3{letter-spacing:-0.02em;}.cls-4{fill:#915329;}.cls-5{fill:#264653;}.cls-6{fill:#297568;}.cls-8{fill:#295866;}.cls-9{fill:#d3b166;}</style></defs><title>logo_1</title><g id="Layer_2" data-name="Layer 2"><g id="Layer_1-2" data-name="Layer 1"><text class="cls-1" transform="translate(0 78.29)">B<tspan class="cls-2" x="60.25" y="0">o</tspan><tspan class="cls-3" x="112.17" y="0">x</tspan><tspan x="154.84" y="0">es Labs</tspan></text><polygon class="cls-4" points="87.57 80.51 87.86 80.33 87.57 80.51 87.57 80.51"/><polygon class="cls-4" points="109.14 41.19 109.1 39.92 109.1 39.93 109.14 41.19"/><polygon class="cls-5" points="93.61 49.57 108.93 39.87 93.72 31.76 109.1 39.92 93.61 49.57"/><polygon class="cls-6" points="109.92 66.43 87.72 80.33 87.44 80.51 86.23 54.13 86.23 54.08 86.26 54.07 93.47 49.57 108.97 39.92 109.01 41.19 109.92 66.43"/><polygon class="cls-7" points="87.44 80.51 64.01 68.08 63.07 41.79 63.07 41.79 86.23 54.08 86.24 54.13 87.44 80.51"/><polygon class="cls-8" points="86.39 54.07 86.37 54.08 63.2 41.79 85.72 27.52 85.74 27.53 86.39 54.07"/><polygon class="cls-9" points="86.23 27.53 86.22 27.52 86.23 27.52 86.23 27.53"/><polygon class="cls-5" points="108.93 39.87 93.61 49.57 86.39 54.07 85.74 27.53 93.72 31.76 108.93 39.87"/></g></g></svg>